HIERARCHY
ROOT Hips
{
	OFFSET 0.000000 0.000000 0.000000
	CHANNELS 6 Xposition Yposition Zposition Xrotation Yrotation Zrotation
	JOINT LeftUpLeg_virtual
	{
		OFFSET 0.000000 0.000000 0.000000
		CHANNELS 3 Xrotation Yrotation Zrotation
		JOINT LeftUpLeg
		{
			OFFSET 15.427100 -6.655098 0.678600
			CHANNELS 3 Xrotation Yrotation Zrotation
			JOINT LeftLeg
			{
				OFFSET 4.081073 -39.591068 13.024000
				CHANNELS 3 Xrotation Yrotation Zrotation
				JOINT LeftFoot
				{
					OFFSET -4.081074 -37.707932 -15.979700
					CHANNELS 3 Xrotation Yrotation Zrotation
					JOINT LeftToeBase
					{
						OFFSET 5.346399 -15.068900 20.645000
						CHANNELS 3 Xrotation Yrotation Zrotation
						JOINT LeftToe_End
						{
							OFFSET 2.754700 0.931300 11.300900
							CHANNELS 3 Xrotation Yrotation Zrotation
							End Site
							{
								OFFSET 0 0 0
							}
						}
					}
				}
			}
		}
	}
	JOINT RightUpLeg_virtual
	{
		OFFSET 0.000000 0.000000 0.000000
		CHANNELS 3 Xrotation Yrotation Zrotation
		JOINT RightUpLeg
		{
			OFFSET -15.569500 -6.655098 0.678600
			CHANNELS 3 Xrotation Yrotation Zrotation
			JOINT RightLeg
			{
				OFFSET -4.081825 -39.591045 13.023800
				CHANNELS 3 Xrotation Yrotation Zrotation
				JOINT RightFoot
				{
					OFFSET 4.081824 -37.707954 -15.979600
					CHANNELS 3 Xrotation Yrotation Zrotation
					JOINT RightToeBase
					{
						OFFSET -5.346400 -15.068900 20.645000
						CHANNELS 3 Xrotation Yrotation Zrotation
						JOINT RightToe_End
						{
							OFFSET -2.754700 0.931300 11.300900
							CHANNELS 3 Xrotation Yrotation Zrotation
							End Site
							{
								OFFSET 0 0 0
							}
						}
					}
				}
			}
		}
	}
	JOINT Spine_virtual
	{
		OFFSET 0.000000 0.000000 0.000000
		CHANNELS 3 Xrotation Yrotation Zrotation
		JOINT Spine
		{
			OFFSET -0.279200 12.230698 -2.892100
			CHANNELS 3 Xrotation Yrotation Zrotation
			JOINT Spine1
			{
				OFFSET -0.232667 10.192268 -1.242267
				CHANNELS 3 Xrotation Yrotation Zrotation
				JOINT Spine1_split
				{
					OFFSET -0.232667 10.192268 -1.242267
					CHANNELS 3 Xrotation Yrotation Zrotation
					JOINT Spine2
					{
						OFFSET -0.232667 10.192268 -1.242267
						CHANNELS 3 Xrotation Yrotation Zrotation
						JOINT Neck_virtual
						{
							OFFSET 0.000000 0.000000 0.000000
							CHANNELS 3 Xrotation Yrotation Zrotation
							JOINT Neck
							{
								OFFSET -0.418800 17.814194 8.416900
								CHANNELS 3 Xrotation Yrotation Zrotation
								JOINT Head
								{
									OFFSET 0.000000 7.031097 3.806800
									CHANNELS 3 Xrotation Yrotation Zrotation
									JOINT HeadTop_End
									{
										OFFSET 0.000000 24.646606 12.978600
										CHANNELS 3 Xrotation Yrotation Zrotation
										End Site
										{
											OFFSET 0 0 0
										}
									}
								}
							}
						}
						JOINT LeftShoulder_virtual
						{
							OFFSET 0.000000 0.000000 0.000000
							CHANNELS 3 Xrotation Yrotation Zrotation
							JOINT LeftShoulder
							{
								OFFSET 8.476499 7.247704 -3.868750
								CHANNELS 3 Xrotation Yrotation Zrotation
								JOINT LeftShoulder_split
								{
									OFFSET 8.476499 7.247704 -3.868750
									CHANNELS 3 Xrotation Yrotation Zrotation
									JOINT LeftArm
									{
										OFFSET 9.308998 -2.777710 0.208600
										CHANNELS 3 Xrotation Yrotation Zrotation
										JOINT LeftForeArm
										{
											OFFSET 29.972298 0.000000 0.000000
											CHANNELS 3 Xrotation Yrotation Zrotation
											JOINT LeftHand
											{
												OFFSET 26.026505 0.000000 0.000000
												CHANNELS 3 Xrotation Yrotation Zrotation
												End Site
												{
													OFFSET 0 0 0
												}
											}
										}
									}
								}
							}
						}
						JOINT RightShoulder_virtual
						{
							OFFSET 0.000000 0.000000 0.000000
							CHANNELS 3 Xrotation Yrotation Zrotation
							JOINT RightShoulder
							{
								OFFSET -7.570500 7.247704 -3.868750
								CHANNELS 3 Xrotation Yrotation Zrotation
								JOINT RightShoulder_split
								{
									OFFSET -7.570500 7.247704 -3.868750
									CHANNELS 3 Xrotation Yrotation Zrotation
									JOINT RightArm
									{
										OFFSET -9.308998 -2.777710 0.208500
										CHANNELS 3 Xrotation Yrotation Zrotation
										JOINT RightForeArm
										{
											OFFSET -29.972300 0.000000 0.000000
											CHANNELS 3 Xrotation Yrotation Zrotation
											JOINT RightHand
											{
												OFFSET -26.026505 0.000000 0.000000
												CHANNELS 3 Xrotation Yrotation Zrotation
												End Site
												{
													OFFSET 0 0 0
												}
											}
										}
									}
								}
							}
						}
					}
				}
			}
		}
	}
}
MOTION
Frames: 4
Frame Time: 0.03333333
0.855647 74.250694 4.248245 0.000000 0.000000 0.000000 -1.965289 -46.635777 3.163679 -31.430000 12.040911 20.622419 51.999562 -9.491117 -4.026424 -27.920965 -9.626212 -10.955372 -2.223860 -0.928977 0.851930 0.000000 0.000000 0.000000 -3.241380 -44.777190 3.701075 -18.704207 -10.790727 -39.068863 52.754831 -5.943756 -11.694629 -23.037740 -9.507899 26.935105 -3.134926 0.420887 0.597015 0.000000 0.000000 0.000000 -1.380323 -46.924257 4.306018 9.033467 12.617143 -2.746091 0.544090 3.926446 -1.714778 0.419992 -1.838969 1.295294 0.000000 0.000000 0.000000 1.784703 4.047239 -1.723842 -8.665338 11.773918 3.907323 6.375002 17.131868 0.859319 0.000000 0.000000 0.000000 1.557070 4.115774 -1.357566 0.747291 0.202778 -4.479003 -0.562330 -3.905905 1.262512 6.242416 1.241747 -38.921905 178.368997 -49.323569 178.902558 0.000000 0.000000 0.000000 1.357963 3.746478 -1.594202 1.474563 13.192402 -4.683065 -6.828997 -1.111870 2.656369 -59.977414 20.337843 64.699008 -166.065395 79.093099 164.867898 0.000000 0.000000 0.000000 
1.355987 74.301003 4.150227 0.000000 0.000000 0.000000 -1.832150 -51.697787 2.694045 -29.731561 11.915056 21.188563 51.835764 -8.429161 -5.028368 -30.373021 -5.860688 -9.963515 -2.554894 -0.979871 1.230373 0.000000 0.000000 0.000000 -2.915099 -49.110727 3.398626 -20.797714 -6.875124 -37.936872 53.316549 -4.487341 -12.649784 -22.777417 -7.460430 27.379638 -2.988926 0.573404 0.334707 0.000000 0.000000 0.000000 -0.856966 -50.738798 4.274076 9.219446 12.030392 -1.878139 0.879943 3.800135 -1.665962 0.463585 -1.659327 1.207668 0.000000 0.000000 0.000000 2.138827 3.957493 -1.641840 -8.886626 12.858169 3.619131 5.470949 20.215970 -0.887861 0.000000 0.000000 0.000000 1.631510 4.028316 -1.246225 0.961020 0.694241 -2.485558 0.167449 -4.493800 0.340697 2.130643 5.613784 -33.953123 178.780557 -53.852961 179.169768 0.000000 0.000000 0.000000 1.412287 3.642805 -1.467475 1.223614 10.663975 -2.761194 -5.992256 -1.272127 2.980545 -60.942670 23.096898 69.921213 -172.364523 74.431112 171.036297 0.000000 0.000000 0.000000 
1.700174 74.189072 4.036514 0.000000 0.000000 0.000000 -1.627172 -56.797189 1.892651 -28.454684 10.876427 22.039417 52.569473 -7.387675 -5.188357 -32.592771 -2.202332 -8.988047 -2.643989 -0.968384 1.305068 0.000000 0.000000 0.000000 -2.648522 -53.228552 2.621550 -22.577853 -4.107688 -35.958040 53.143421 -3.249260 -13.403298 -22.836862 -5.711721 27.487924 -2.925970 0.777741 0.101991 0.000000 0.000000 0.000000 -0.116726 -54.249812 3.804568 9.347679 10.895588 -1.220596 1.220287 3.218476 -1.612717 0.787435 -1.484043 1.085108 0.000000 0.000000 0.000000 2.455338 3.303247 -1.513080 -9.053206 14.277949 3.355381 4.903401 23.446614 -2.820221 0.000000 0.000000 0.000000 1.782783 3.373495 -1.171511 1.091714 1.044213 -0.135407 0.152606 -3.150691 -0.570022 -6.596093 6.000591 -26.470808 178.720970 -66.083685 179.159946 0.000000 0.000000 0.000000 1.549623 3.035598 -1.442581 0.985810 9.039506 -1.186847 -5.328967 -1.997767 2.954733 -61.341997 25.948117 74.288204 -176.183227 70.266486 174.583884 0.000000 0.000000 0.000000 
1.854417 74.037361 3.714436 0.000000 0.000000 0.000000 -1.594136 -60.543207 0.767156 -27.948770 9.045714 22.991049 53.959007 -6.731052 -4.475071 -34.085724 0.741627 -8.607218 -2.433887 -0.891913 1.170443 0.000000 0.000000 0.000000 -2.698255 -56.290635 1.337601 -23.530055 -3.020412 -33.530539 52.288462 -2.665352 -13.866142 -23.354879 -4.608168 26.933394 -2.772340 0.986437 0.065025 0.000000 0.000000 0.000000 0.500475 -56.772843 2.890523 9.401235 9.199655 -0.772027 1.451752 2.178214 -1.596728 1.170367 -1.179530 0.798606 0.000000 0.000000 0.000000 2.589659 2.099231 -1.461916 -8.989790 15.835070 3.203091 5.125646 26.474819 -4.805711 0.000000 0.000000 0.000000 2.162014 2.144731 -1.223955 1.181059 1.113434 2.024406 -0.829029 -0.411669 -1.292147 -17.491319 1.494484 -19.133412 172.620915 -85.803480 173.135132 0.000000 0.000000 0.000000 1.746244 1.907201 -1.537342 0.798415 8.328289 0.027454 -5.353662 -2.713396 2.461998 -59.670049 28.916323 77.376030 -178.604379 66.337160 176.620646 0.000000 0.000000 0.000000 
